<svg xmlns="http://www.w3.org/2000/svg" xmlns:xlink="http://www.w3.org/1999/xlink" width="500" zoomAndPan="magnify" viewBox="0 0 375 374.999991" height="500" preserveAspectRatio="xMidYMid meet" version="1.0"><path fill="#ffde59" d="M 187.609375 72.578125 C 187.609375 77.125 184.019531 81.761719 179.597656 82.949219 C 175.179688 84.132812 171.589844 81.402344 171.589844 76.863281 C 171.589844 72.324219 175.179688 67.648438 180.027344 66.832031 C 184.859375 65.992188 187.609375 68.589844 187.609375 72.578125 Z M 242.324219 51.84375 C 240.898438 51.824219 239.371094 52.007812 237.789062 52.4375 L 199.707031 62.566406 C 196.863281 54.445312 188.738281 50.601562 179.597656 53.035156 C 170.453125 55.476562 162.316406 63.660156 159.472656 73.296875 L 121.402344 83.558594 C 113.0625 85.800781 105.839844 93.960938 105.839844 102.085938 L 105.839844 257.117188 C 105.839844 265.238281 113.0625 269.542969 121.402344 267.300781 L 167.800781 254.910156 L 160.554688 249.402344 L 121.402344 259.84375 C 116.664062 261.109375 113.339844 258.773438 113.339844 255.117188 L 113.339844 100.082031 C 113.339844 96.414062 116.664062 92.292969 121.402344 91.019531 L 138.945312 86.328125 L 138.945312 102.703125 C 138.945312 106.226562 141.847656 108.300781 145.414062 107.335938 L 213.785156 89.054688 C 217.351562 88.109375 220.230469 84.496094 220.230469 80.949219 L 220.230469 64.589844 L 237.789062 59.898438 C 242.527344 58.636719 245.859375 60.976562 245.859375 64.628906 L 245.859375 179.96875 L 253.363281 184.53125 L 253.363281 62.617188 C 253.363281 56.039062 248.601562 51.953125 242.324219 51.84375 Z M 242.324219 51.84375 " fill-opacity="1" fill-rule="evenodd"/><path fill="#ffde59" d="M 132.316406 136.265625 L 146.265625 132.539062 L 146.265625 145.265625 L 132.316406 148.992188 Z M 129.53125 131.414062 C 127.980469 131.820312 126.722656 133.417969 126.722656 134.972656 L 126.722656 153.3125 C 126.722656 154.851562 127.984375 155.777344 129.53125 155.351562 L 149.074219 150.121094 C 150.617188 149.710938 151.859375 148.136719 151.859375 146.578125 L 151.859375 128.238281 C 151.859375 126.695312 150.613281 125.773438 149.074219 126.179688 Z M 129.53125 131.414062 " fill-opacity="1" fill-rule="evenodd"/><path fill="#ffde59" d="M 166.039062 127.257812 L 228.761719 110.476562 L 228.761719 123.195312 L 166.039062 139.976562 Z M 163.210938 122.394531 C 161.671875 122.800781 160.425781 124.398438 160.425781 125.953125 L 160.425781 144.300781 C 160.425781 145.839844 161.691406 146.746094 163.210938 146.335938 L 231.589844 128.074219 C 233.132812 127.644531 234.390625 126.066406 234.390625 124.511719 L 234.390625 106.164062 C 234.390625 104.605469 233.128906 103.683594 231.589844 104.109375 Z M 163.210938 122.394531 " fill-opacity="1" fill-rule="evenodd"/><path fill="#ffde59" d="M 132.277344 178.644531 L 146.308594 174.902344 L 146.308594 187.53125 L 132.277344 191.277344 Z M 129.53125 173.675781 C 128.003906 174.105469 126.757812 175.699219 126.757812 177.277344 L 126.757812 195.601562 C 126.757812 197.199219 127.984375 198.140625 129.53125 197.730469 L 149.054688 192.507812 C 150.601562 192.097656 151.824219 190.484375 151.824219 188.90625 L 151.824219 170.570312 C 151.824219 169.007812 150.578125 168.058594 149.054688 168.46875 Z M 129.53125 173.675781 " fill-opacity="1" fill-rule="evenodd"/><path fill="#ffde59" d="M 230.84375 146.527344 L 162.484375 164.8125 C 161.257812 165.140625 160.40625 166.257812 160.40625 167.515625 L 160.40625 176.105469 L 166.039062 176.886719 L 166.039062 169.671875 L 228.757812 152.90625 L 228.757812 167.351562 L 234.371094 170.769531 L 234.371094 149.25 C 234.375 146.949219 232.71875 146.027344 230.84375 146.527344 Z M 230.84375 146.527344 " fill-opacity="1" fill-rule="evenodd"/><path fill="#ffde59" d="M 132.277344 220.96875 L 146.308594 217.222656 L 146.308594 229.855469 L 132.277344 233.601562 Z M 126.757812 219.597656 L 126.757812 237.921875 C 126.757812 239.519531 127.984375 240.460938 129.53125 240.058594 L 149.054688 234.828125 C 150.601562 234.417969 151.824219 232.808594 151.824219 231.234375 L 151.824219 212.910156 C 151.824219 211.335938 150.578125 210.382812 149.054688 210.789062 L 129.53125 216.019531 C 127.59375 216.519531 126.757812 218.300781 126.757812 219.597656 Z M 126.757812 219.597656 " fill-opacity="1" fill-rule="evenodd"/><path fill="#ffde59" d="M 270.695312 264.683594 L 275.023438 272.289062 C 276.179688 274.328125 275.042969 276.835938 273.261719 277.835938 L 240.765625 296.417969 C 238.292969 297.824219 235.449219 298.027344 234.152344 296.179688 L 228.984375 288.71875 Z M 213.601562 199.441406 L 220.144531 210.753906 C 221.125 212.460938 221.445312 214.347656 220.886719 216.261719 C 220.367188 218.078125 219.03125 219.914062 216.648438 221.621094 L 200.152344 205.09375 C 200.910156 204.890625 201.65625 204.703125 202.4375 204.351562 Z M 168.359375 189.164062 L 174.792969 190.109375 L 238.667969 254.074219 C 242.828125 258.25 236.839844 263.460938 233.054688 259.652344 L 193.980469 220.480469 C 191.289062 211.621094 188.015625 206.109375 184.023438 202.976562 C 180.660156 200.324219 176.867188 199.734375 173.601562 200.101562 L 169.308594 195.757812 Z M 224.171875 178.910156 L 242.917969 208.730469 C 245.816406 213.347656 250.386719 209.566406 248.265625 205.894531 L 242.136719 195.285156 C 246.835938 197.765625 251.964844 200.585938 255.5 202.90625 C 259.4375 205.460938 261.164062 208.597656 261.753906 213.90625 L 265.25 249.421875 C 265.640625 252.347656 266.253906 255.335938 267.347656 258.140625 L 224.964844 282.566406 C 222.457031 279.007812 219.804688 276.480469 216.257812 273.753906 L 180.117188 245.84375 C 177.832031 244.082031 177.085938 240.222656 177.332031 235.324219 L 177.964844 222.65625 L 176.519531 208.117188 C 177.667969 207.875 178.761719 208.28125 179.484375 208.785156 C 181.847656 210.375 184.726562 214.570312 187.007812 222.789062 C 187.382812 224.160156 188.089844 224.976562 188.902344 225.796875 L 227.851562 264.851562 C 230.359375 267.355469 233.257812 268.453125 236.058594 268.339844 C 238.890625 268.226562 241.621094 266.964844 243.867188 264.871094 C 248.660156 260.417969 248.308594 253.332031 243.867188 248.882812 L 221.847656 226.828125 C 228.316406 221.453125 230.152344 213.347656 226.53125 207.078125 L 218.300781 192.890625 C 217.375 191.277344 215.371094 190.605469 213.640625 191.355469 L 199.441406 197.601562 C 193.554688 200.195312 189.558594 195.304688 194.1875 191.925781 L 214.589844 177.03125 C 218.390625 174.25 221.847656 175.234375 224.171875 178.910156 Z M 218.726562 167.78125 C 215.960938 167.925781 213.082031 169.054688 210.238281 171.117188 L 188.035156 187.328125 C 186.863281 188.179688 185.78125 189.386719 185.503906 190.421875 L 179.171875 184.0625 C 178.539062 183.414062 177.644531 183.09375 177.074219 183.003906 L 164.546875 181.203125 C 162.003906 180.832031 160.03125 183.019531 160.367188 185.339844 L 162.191406 198.027344 C 162.316406 198.917969 162.785156 199.660156 163.207031 200.089844 L 168.835938 205.726562 L 170.550781 222.640625 L 169.949219 234.953125 C 169.695312 240.683594 170.230469 247.53125 175.621094 251.664062 L 211.757812 279.574219 C 216.011719 282.835938 217.851562 284.652344 220.636719 289.308594 C 221.917969 291.484375 223.3125 293.578125 224.652344 295.6875 C 227.585938 300.882812 231.449219 304.203125 236.097656 304.589844 C 240.726562 305 242.507812 303.980469 247.335938 301.144531 L 272.117188 286.640625 C 276.933594 283.820312 278.828125 283.1875 280.855469 279.019531 C 282.875 274.828125 282.082031 269.820312 279.128906 264.605469 L 275.28125 257.84375 C 273.34375 254.433594 272.886719 250.40625 272.511719 247.144531 L 269.109375 213.070312 C 268.351562 206.191406 265.195312 200.445312 259.566406 196.75 C 251.050781 191.191406 236.613281 184.175781 235.375 183.5625 L 230.542969 175.238281 C 228.1875 171.15625 225.007812 168.6875 221.457031 167.988281 C 220.566406 167.816406 219.660156 167.742188 218.726562 167.78125 Z M 218.726562 167.78125 " fill-opacity="1" fill-rule="nonzero"/></svg>